<?xml version="1.0" encoding="UTF-8"?>
<svg xmlns="http://www.w3.org/2000/svg" version="1.1" viewBox="0 0 512 512">
  <defs>
    <style>
      .cls-1 {
        fill: #002f87;
      }
    </style>
  </defs>
  <!-- Generator: Adobe Illustrator 28.6.0, SVG Export Plug-In . SVG Version: 1.2.0 Build 709)  -->
  <g>
    <g id="Layer_1">
      <g>
        <path class="cls-1" d="M100.22,305.9c-11.57-1.66-7.36-11.62-.17-24.56,2.22.15,10.57.25,10.57.25h57.28s3.39-6.1,12.34-22.8c14.91-27.81-1.6-44.27-29.9-44.6-40.49-.48-54.14,18.98-68.57,44.36-5.9,10.37-12.66,23.64-15.84,33.41-4.09,12.55-.88,20.99,4.24,27.07,5.28,6.25,13.7,8.75,20.62,9.33,19.21,1.62,48.07-1.19,48.07-1.19l11.72-22.09s-36.57,2.81-50.35.83M144.39,236.21c7.72,0,17.58,2.95,11.72,13.82-3.67,6.83-5.85,11.19-5.85,11.19h-40.57c10.51-19.24,19.32-25,34.69-25"/>
        <path class="cls-1" d="M350.76,305.9c-11.57-1.66-7.36-11.62-.17-24.56,2.23.15,10.57.25,10.57.25h57.28s3.39-6.1,12.34-22.8c14.91-27.81-1.6-44.27-29.9-44.6-40.49-.48-54.14,18.98-68.57,44.36-5.9,10.37-12.65,23.64-15.84,33.41-4.09,12.55-.88,20.99,4.24,27.07,5.28,6.25,13.7,8.75,20.63,9.33,19.2,1.62,48.06-1.19,48.06-1.19l11.72-22.09s-36.57,2.81-50.36.83M394.94,236.21c7.72,0,17.58,2.95,11.73,13.82-3.68,6.83-5.85,11.19-5.85,11.19h-40.57c10.51-19.24,19.32-25,34.68-25"/>
        <polygon class="cls-1" points="482.48 183.18 406.18 327.52 436.03 327.52 512 183.15 482.48 183.18"/>
        <path class="cls-1" d="M339.97,215.69s-14.99-1.77-32.84-1.54c-13.14.17-22.16,1.88-28.23,3.78h0c-24.3,7.75-33.6,25.98-41.66,40.61-5.57,10.11-12.46,22.29-15.84,33.41-7.87,25.87,12.49,35.44,24.86,36.39,19.27,1.48,44.19-1.19,44.19-1.19l11.56-22.03s-32.02,2.96-45.81,1.03c-4.8-.67-6.87-3.17-7.1-6.77-.29-4.63,2.4-10.06,6.22-17.8,3.82-7.73,11.73-21.44,11.73-21.44,4.12-7.49,7.54-11.55,11.91-15.63,7.47-6.09,15.7-7.35,28-7.3,9.57.04,20.86,1.36,20.86,1.36l12.15-22.88Z"/>
        <path class="cls-1" d="M71.97,215.11l16.91-31.93-29.59.02-16.86,31.91-20.07.02-11.67,22.08,10.91-.04,9.32-.29s-11.61,22.97-20.21,39.46C3.79,289.61-.37,298.71.03,307.89c.22,5.26,2.22,10.24,5.44,13.44,8.86,8.81,23.38,7.93,37,6.86l12.05-22.72c-8.39.5-15.12.25-17.49-.1-7.88-1.13-9.39-4.6-6.3-10.86,6.2-13,29.66-57.49,29.66-57.49l9.99.31,12.51.02,11.78-22.25h-22.7Z"/>
        <polygon class="cls-1" points="234.11 183.18 157.8 327.52 187.65 327.52 263.62 183.15 234.11 183.18"/>
      </g>
    </g>
  </g>
</svg>